<svg width="50" height="35" viewBox="0 0 50 35" fill="none" xmlns="http://www.w3.org/2000/svg">
<path d="M8.56678 13.5465C8.88428 7.51405 22.9071 4.06862 36.2244 5.06815C29.5687 6.51452 18.809 10.2187 14.9814 13.1408C13.0999 14.5813 12.9765 15.5808 13.5527 16.5686C14.4993 18.1914 18.6679 19.7318 18.8737 19.7906C18.6209 19.138 19.838 17.2506 23.642 14.6813C28.7102 11.2476 37.2709 6.58508 50.0061 2.85742C50.0061 2.85742 38.2411 -0.0412141 27.0463 0.0117021C10.2601 0.0763776 0.394161 5.79722 0.0119875 13.2349C-0.276112 18.8675 6.27963 25.7525 23.8067 28.7982C15.6517 32.3024 7.83772 27.6987 7.23212 26.8579C7.60253 28.9863 11.5125 35.0658 22.6602 34.0721C32.2498 33.2137 37.8942 26.7756 37.8942 26.7756C29.2159 26.1053 8.21989 20.1375 8.56678 13.5465Z" fill="black"/>
</svg>
